<?xml version="1.0" encoding="utf-8"?>
<!-- Generator: Adobe Illustrator 16.0.0, SVG Export Plug-In . SVG Version: 6.00 Build 0)  -->
<!DOCTYPE svg PUBLIC "-//W3C//DTD SVG 1.1//EN" "http://www.w3.org/Graphics/SVG/1.1/DTD/svg11.dtd">
<svg version="1.1" id="Layer_1" xmlns="http://www.w3.org/2000/svg" xmlns:xlink="http://www.w3.org/1999/xlink" x="0px" y="0px"
	 width="988px" height="186px" viewBox="0 0 988 186" enable-background="new 0 0 988 186" xml:space="preserve">
<path fill="#FFFFFF" d="M418.293,164.917c1.356-2.334,16.612-30.999,3.483-54.777c-11.635-21.071-23.408-24.496-36.936-38.941
	c-13.53-14.443-13.046-29.791-13.046-29.791c-8.237,14.365-6.913,27.014-0.096,39.199c-10.104-6.044-20.991-11.282-31.078-17.33
	c-22.277-13.354-32.857-29.747-32.857-29.747c-1.833,18.704,9.06,32.668,25.379,46.242c-29.804-11.508-61.941-16.916-92.691-26.59
	c-39.219-12.314-59.837-33.849-59.837-33.849c9.824,29.198,35.259,47.423,69.903,61.355c-27.637-3.873-52.93-5.856-81.141-9.752
	c-51.369-7.097-79.87-27.455-79.87-27.455c25.784,40.861,75.04,52.545,119.709,60.357c3.28,0.574,6.43,1.106,9.484,1.613
	c-34.804,1.149-61.687,6.239-99.744,6.838c-57.674,0.908-98.431-14.119-98.431-14.119c37.514,30.728,91.055,39.169,154.998,39.479
	c63.939,0.313,86.638-3.155,137.688,1.103c44.569,3.717,91.406,20.951,102.584,25.269c1.384,0.556,2.238,0.883,2.448,0.963
	c0.001,0.005,0.001,0.021,0.001,0.021c0.002-0.003,0.005-0.013,0.009-0.017c0.018,0.007,0.021,0.007,0.026,0.01l0.018,0.007
	c0,0,0,0-0.001,0h0.001C418.297,164.975,418.295,164.945,418.293,164.917 M337.469,66.658c5.174,3.102,10.587,6.011,15.822,8.824
	c8.217,4.416,16.715,8.981,24.113,14.233c10.5,7.453,19.243,16.771,25.28,26.942c5.164,8.698,7.586,17.976,8.843,27.394
	c-7.189-15.009-17.525-26.24-30.257-37.174c-8.918-7.599-19.582-14.104-30.85-19.603c-0.572-0.428-1.125-0.842-1.717-1.281
	c-17.541-12.968-29.502-24.043-33.951-36.857C320.275,54.558,327.807,60.867,337.469,66.658z M258.524,81.824
	c1.865,0.285,3.717,0.58,5.561,0.877c-1.849-0.285-3.696-0.567-5.548-0.848c-2.237-0.34-4.453-0.662-6.657-0.975
	C254.091,81.173,256.335,81.473,258.524,81.824z M107.717,58.311c13.947,6.147,34.399,13.141,60.767,16.784
	c14.022,1.937,27.471,3.419,40.477,4.852c15.628,1.721,31.791,3.502,48.599,6.054c37.369,5.675,68.229,11.123,96.827,25.063
	c12.075,5.887,24.209,14.558,35.089,25.075c4.486,4.337,8.515,9.129,12.136,13.87c-19.108-14.504-56.179-35.173-120.158-42.041
	c-12.456-1.337-23.696-2.107-34.097-2.477c-10.709-1.481-22.743-3.284-37.019-5.78C174.02,93.361,134.197,84.332,107.717,58.311z"/>
<path fill="#FFFFFF" d="M482.576,67.506l-33.881,60.647h5.541l6.334-11.307h37.369l6.434,11.307h12.909l-34.477-60.248
	L482.576,67.506z M495.876,113.333h-33.339l16.466-29.464L495.876,113.333z"/>
<polygon fill="#FFFFFF" points="544.189,116.965 525.853,86.902 525.783,86.79 513.898,86.79 538.939,127.964 530.271,146.008 
	534.997,146.008 563.172,86.79 558.547,86.79 "/>
<path fill="#FFFFFF" d="M611.746,121.084c-2.747,2.666-6.909,3.963-12.722,3.963c-4.77,0-9.867-2.595-9.867-9.87V86.711h-10.706
	l-0.103,28.957c0,6.288,5.39,13.63,20.573,13.63c4.724,0,9.036-1.373,12.824-4.09v2.944h10.708V86.711h-10.708V121.084z"/>
<path fill="#FFFFFF" d="M660.975,103.765c-1.047-0.396-2.073-0.767-3.063-1.124c-5.856-2.117-10.479-3.789-10.479-7.453
	c0-3.824,4.031-6.107,10.784-6.107c3.481,0,12.518,1.333,12.518,7.415v0.199h4.068v-0.199c0-9.626-13.902-10.113-16.687-10.113
	c-10.141,0-20.37,3.48-20.37,11.258c0,7.724,10.03,11.256,16.021,13.368l0.257,0.091c1.396,0.497,2.707,0.938,3.927,1.35
	c6.856,2.312,10.632,3.586,10.632,7.972c0,3.452-5.021,5.861-12.204,5.861c-6.794-0.189-14.057-2.604-14.057-8.813v-0.199h-4.576
	v0.199c0,9.34,11.578,11.83,18.42,11.83c13.081,0,22.215-4.528,22.215-11.014C678.381,110.73,671.766,107.846,660.975,103.765"/>
<path fill="#FFFFFF" d="M717.111,86.711c-4.763,0-9.038,1.371-12.722,4.078v-23h-10.708v60.363h10.708V94.928
	c2.398-2.345,6.521-5.111,12.62-5.111c6.474,0,9.967,5.68,9.967,11.022v27.313h10.708v-27.805
	C737.685,94.058,732.298,86.711,717.111,86.711"/>
<path fill="#FFFFFF" d="M809.701,86.711c-7.298,0-12.315,3.134-15.293,5.849c-3.32-3.827-9.501-5.849-17.901-5.849
	c-4.713,0-9.023,1.373-12.824,4.087v-4.087h-10.708v41.441h10.708V94.928c3.467-3.391,7.748-5.111,12.722-5.111
	c4.784,0,9.866,3.863,9.866,11.022v27.313h10.707l0.104-27.805v-5.343c3.128-3.54,7.107-5.188,12.518-5.188
	c4.782,0,9.866,3.863,9.866,11.022v27.313h10.706l0.103-27.805C830.273,94.058,824.885,86.711,809.701,86.711"/>
<path fill="#FFFFFF" d="M868.363,86.383c-9.162,0-15.347,2.527-18.909,7.728l-0.152,0.219l3.339,0.762l0.102-0.119
	c4.639-5.438,11.163-5.647,14.955-5.647h0.475h0.397c6.413,0,9.149,2.193,9.149,7.336v3.875c-3.398,1.003-7.118,1.676-10.719,2.324
	c-11.032,1.992-21.454,3.875-21.454,14.69c0,7.647,4.654,10.354,8.56,11.278c1.427,0.339,2.949,0.491,4.516,0.491
	c7.479,0,15.884-3.481,19.098-6.802v5.635h10.708l0.103-29.12C888.529,90.519,881.934,86.383,868.363,86.383 M877.719,103.318
	v16.283c-4.943,4.598-10.938,6.734-15.29,5.443c-3.391-1.008-5.257-3.93-5.257-8.232c0-9.11,7.26-10.635,15.669-12.403
	C874.435,104.073,876.083,103.727,877.719,103.318z"/>
<path fill="#FFFFFF" d="M927.36,86.711c-4.712,0-9.025,1.373-12.824,4.087v-4.087h-10.708v41.441h10.708V94.928
	c3.467-3.391,7.746-5.111,12.724-5.111c4.782,0,9.863,3.863,9.863,11.022v27.313h10.708l0.104-27.805
	C947.935,94.058,942.546,86.711,927.36,86.711"/>
<path fill="#FFFFFF" d="M960.918,76.12c0.491-0.466,0.739-1.053,0.739-1.76c0-0.849-0.344-1.52-1.032-2.015
	c-0.686-0.494-1.61-0.743-2.775-0.743h-4.919v9.121h2.274v-3.605h1.216l2.911,3.605l2.695-0.042l-3.173-3.647
	C959.735,76.892,960.424,76.586,960.918,76.12 M955.205,75.59v-2.334h2.487c0.492,0,0.898,0.092,1.216,0.277
	c0.317,0.184,0.477,0.474,0.477,0.869c0,0.396-0.159,0.693-0.477,0.892c-0.317,0.198-0.724,0.296-1.216,0.296H955.205z"/>
<path fill="#FFFFFF" d="M966.126,71.856c-0.899-1.301-2.135-2.318-3.701-3.055c-1.57-0.735-3.359-1.103-5.367-1.103
	c-2.011,0-3.81,0.368-5.396,1.103c-1.587,0.736-2.829,1.754-3.728,3.055c-0.899,1.302-1.348,2.757-1.348,4.371
	c0,1.611,0.448,3.061,1.348,4.348c0.898,1.287,2.141,2.298,3.728,3.033c1.586,0.736,3.385,1.104,5.396,1.104
	c2.008,0,3.797-0.368,5.367-1.104c1.566-0.734,2.802-1.746,3.701-3.033c0.898-1.287,1.349-2.737,1.349-4.348
	C967.475,74.614,967.024,73.159,966.126,71.856 M963.217,81.317c-1.568,1.33-3.621,1.994-6.159,1.994
	c-2.576,0-4.646-0.664-6.215-1.994c-1.568-1.329-2.353-3.027-2.353-5.09c0-2.066,0.784-3.762,2.353-5.092
	c1.568-1.328,3.639-1.993,6.215-1.993c2.538,0,4.591,0.666,6.159,1.993c1.568,1.33,2.354,3.026,2.354,5.092
	C965.571,78.29,964.785,79.988,963.217,81.317z"/>
<path fill="#FFFFFF" d="M590.121,146.034l9.288,20.151h-2.779l-2.044-4.436h-11.828l-2.017,4.436h-2.806l9.286-20.151H590.121z
	 M588.672,148.572l-4.916,10.878h9.822L588.672,148.572z"/>
<path fill="none" stroke="#FFFFFF" stroke-width="0.216" stroke-miterlimit="2.6131" d="M590.121,146.034l9.288,20.151h-2.779
	l-2.044-4.436h-11.828l-2.017,4.436h-2.806l9.286-20.151H590.121z M588.672,148.572l-4.916,10.878h9.822L588.672,148.572z"/>
<polygon fill="#FFFFFF" points="611.954,146.126 611.954,146.034 615.091,146.034 621.297,155.592 627.662,146.034 630.799,146.034 
	630.799,146.126 622.633,158.011 622.633,166.186 619.969,166.186 619.969,158.011 "/>
<polygon fill="none" stroke="#FFFFFF" stroke-width="0.216" stroke-miterlimit="2.6131" points="611.954,146.126 611.954,146.034 
	615.091,146.034 621.297,155.592 627.662,146.034 630.799,146.034 630.799,146.126 622.633,158.011 622.633,166.186 
	619.969,166.186 619.969,158.011 "/>
<path fill="#FFFFFF" d="M664.252,146.063v12.096c0,2.666-0.801,4.729-2.41,6.194s-3.607,2.208-5.989,2.208
	c-2.365,0-4.371-0.733-6.02-2.189c-1.646-1.457-2.466-3.528-2.466-6.213v-12.096h2.542v12.096c0,1.915,0.574,3.409,1.714,4.481
	c1.14,1.081,2.553,1.612,4.229,1.612s3.069-0.541,4.18-1.64c1.122-1.092,1.679-2.584,1.679-4.491v-12.087h2.513L664.252,146.063z"/>
<path fill="none" stroke="#FFFFFF" stroke-width="0.216" stroke-miterlimit="2.6131" d="M664.252,146.063v12.096
	c0,2.666-0.801,4.729-2.41,6.194s-3.607,2.208-5.989,2.208c-2.365,0-4.371-0.733-6.02-2.189c-1.646-1.457-2.466-3.528-2.466-6.213
	v-12.096h2.542v12.096c0,1.915,0.574,3.409,1.714,4.481c1.14,1.081,2.553,1.612,4.229,1.612s3.069-0.541,4.18-1.64
	c1.122-1.092,1.679-2.584,1.679-4.491v-12.087h2.513L664.252,146.063z"/>
<path fill="#FFFFFF" d="M690.587,158.927h-5.03v7.26h-2.57v-20.153h9.408c2.203,0,3.927,0.634,5.16,1.908
	c1.225,1.265,1.847,2.775,1.847,4.545c0.019,1.648-0.462,3.06-1.451,4.243c-0.987,1.181-2.485,1.852-4.492,1.996l6.83,7.461h-3.251
	L690.587,158.927z M695.662,155.519c0.772-0.779,1.168-1.769,1.168-2.977c0.02-1.11-0.367-2.099-1.159-2.961
	c-0.791-0.871-1.883-1.302-3.276-1.302h-6.838v8.403h6.714C693.751,156.683,694.88,156.299,695.662,155.519z"/>
<path fill="none" stroke="#FFFFFF" stroke-width="0.216" stroke-miterlimit="2.6131" d="M690.587,158.927h-5.03v7.26h-2.57v-20.153
	h9.408c2.203,0,3.927,0.634,5.16,1.908c1.225,1.265,1.847,2.775,1.847,4.545c0.019,1.648-0.462,3.06-1.451,4.243
	c-0.987,1.181-2.485,1.852-4.492,1.996l6.83,7.461h-3.251L690.587,158.927z M695.662,155.519c0.772-0.779,1.168-1.769,1.168-2.977
	c0.02-1.11-0.367-2.099-1.159-2.961c-0.791-0.871-1.883-1.302-3.276-1.302h-6.838v8.403h6.714
	C693.751,156.683,694.88,156.299,695.662,155.519z"/>
<polygon fill="#FFFFFF" points="717.653,146.034 724.728,163.243 731.856,146.034 734.689,146.034 726.149,166.239 723.361,166.239 
	714.791,146.034 "/>
<polygon fill="none" stroke="#FFFFFF" stroke-width="0.216" stroke-miterlimit="2.6131" points="717.653,146.034 724.728,163.243 
	731.856,146.034 734.689,146.034 726.149,166.239 723.361,166.239 714.791,146.034 "/>
<polygon fill="#FFFFFF" points="751.53,146.034 766.083,146.034 766.083,148.344 754.074,148.344 754.074,154.64 765.583,154.64 
	765.583,156.975 754.074,156.975 754.074,163.793 766.553,163.793 766.553,166.185 751.53,166.185 "/>
<polygon fill="none" stroke="#FFFFFF" stroke-width="0.216" stroke-miterlimit="2.6131" points="751.53,146.034 766.083,146.034 
	766.083,148.344 754.074,148.344 754.074,154.64 765.583,154.64 765.583,156.975 754.074,156.975 754.074,163.793 766.553,163.793 
	766.553,166.185 751.53,166.185 "/>
<path fill="#FFFFFF" d="M784.249,146.007h7.544c1.695,0,3.221,0.285,4.577,0.834c1.366,0.559,2.46,1.312,3.288,2.245
	c0.829,0.944,1.461,1.99,1.893,3.151c0.435,1.165,0.65,2.375,0.65,3.64c0,1.328-0.209,2.594-0.622,3.784
	c-0.414,1.201-1.027,2.3-1.845,3.28c-0.82,0.988-1.913,1.778-3.29,2.364c-1.363,0.588-2.917,0.879-4.651,0.879h-7.544v-20.15
	V146.007z M797.632,161.365c1.33-1.548,1.998-3.382,1.998-5.517c0-2.034-0.679-3.776-2.044-5.232
	c-1.355-1.457-3.288-2.189-5.793-2.189h-4.972v15.257h4.972C794.354,163.684,796.305,162.904,797.632,161.365z"/>
<path fill="none" stroke="#FFFFFF" stroke-width="0.216" stroke-miterlimit="2.6131" d="M784.249,146.007h7.544
	c1.695,0,3.221,0.285,4.577,0.834c1.366,0.559,2.46,1.312,3.288,2.245c0.829,0.944,1.461,1.99,1.893,3.151
	c0.435,1.165,0.65,2.375,0.65,3.64c0,1.328-0.209,2.594-0.622,3.784c-0.414,1.201-1.027,2.3-1.845,3.28
	c-0.82,0.988-1.913,1.778-3.29,2.364c-1.363,0.588-2.917,0.879-4.651,0.879h-7.544v-20.15V146.007z M797.632,161.365
	c1.33-1.548,1.998-3.382,1.998-5.517c0-2.034-0.679-3.776-2.044-5.232c-1.355-1.457-3.288-2.189-5.793-2.189h-4.972v15.257h4.972
	C794.354,163.684,796.305,162.904,797.632,161.365z"/>
<path fill="#FFFFFF" d="M828.949,146.034l9.284,20.151h-2.777l-2.046-4.436h-11.828l-2.015,4.436h-2.806l9.284-20.151H828.949z
	 M827.497,148.572l-4.906,10.878h9.823L827.497,148.572z"/>
<path fill="none" stroke="#FFFFFF" stroke-width="0.216" stroke-miterlimit="2.6131" d="M828.949,146.034l9.284,20.151h-2.777
	l-2.046-4.436h-11.828l-2.015,4.436h-2.806l9.284-20.151H828.949z M827.497,148.572l-4.906,10.878h9.823L827.497,148.572z"/>
</svg>
